<?xml version="1.0" encoding="utf-8"?>
<!-- Generator: Adobe Illustrator 15.0.0, SVG Export Plug-In . SVG Version: 6.00 Build 0)  -->
<!DOCTYPE svg PUBLIC "-//W3C//DTD SVG 1.1//EN" "http://www.w3.org/Graphics/SVG/1.1/DTD/svg11.dtd">
<svg version="1.1" id="logo" xmlns="http://www.w3.org/2000/svg" xmlns:xlink="http://www.w3.org/1999/xlink" x="0px" y="0px"
	 width="510.24px" height="155.91px" viewBox="0 0 510.24 155.91" enable-background="new 0 0 510.24 155.91" xml:space="preserve">
<linearGradient id="SVGID_1_" gradientUnits="userSpaceOnUse" x1="373.3752" y1="-496.9077" x2="373.3752" y2="-326.6973" gradientTransform="matrix(0.5197 0 0 -0.5197 -66.752 -139.3098)">
	<stop  offset="0" style="stop-color:#3C4D6D"/>
	<stop  offset="0.3548" style="stop-color:#107E7B"/>
</linearGradient>
<path fill="url(#SVGID_1_)" d="M104.406,92.877l17.412-3.352c0,7.459,0.613,16.238,6.559,16.238c4.059,0,5.096-2.927,5.096-6.514
	c0-7.081-5.096-13.406-10.05-17.748l-5.332-4.532c-6.701-5.664-13.637-11.895-13.637-24.121c0-13.925,9.673-22.374,23.97-22.374
	c12.08,0,21.658,9.865,21.658,21.902c0,0.283-0.047,0.661-0.047,2.03l-17.742,2.454c0-1.085,0.142-2.124,0.142-3.445
	c0-4.012-0.896-9.771-5.426-9.771c-4.059,0-5.663,3.871-5.663,7.458c0,6.089,3.209,9.866,7.267,13.265
	c2.17,1.84,4.294,3.587,6.276,5.381c8.729,7.788,15.287,15.766,15.287,28.888c0,12.179-10.003,20.298-21.847,20.298
	C112.051,118.934,105.068,106.188,104.406,92.877z"/>
<linearGradient id="SVGID_2_" gradientUnits="userSpaceOnUse" x1="476.2903" y1="-490.1846" x2="476.2903" y2="-326.6973" gradientTransform="matrix(0.5197 0 0 -0.5197 -66.752 -139.3098)">
	<stop  offset="0" style="stop-color:#3C4D6D"/>
	<stop  offset="0.3548" style="stop-color:#107E7B"/>
</linearGradient>
<path fill="url(#SVGID_2_)" d="M157.396,115.439V30.475h17.176V65.31h12.315V30.475h17.27v84.964h-17.27V77.536h-12.315v37.904
	H157.396z"/>
<linearGradient id="SVGID_3_" gradientUnits="userSpaceOnUse" x1="754.0383" y1="-490.1846" x2="754.0383" y2="-326.6973" gradientTransform="matrix(0.5197 0 0 -0.5197 -66.752 -139.3098)">
	<stop  offset="0" style="stop-color:#3C4D6D"/>
	<stop  offset="0.3548" style="stop-color:#107E7B"/>
</linearGradient>
<path fill="url(#SVGID_3_)" d="M301.365,115.439V30.475h18.686c16.42,0,27.084,5.853,27.084,22.374
	c0,7.458-1.038,16.994-11.561,21.524c4.247,13.5,8.541,26.953,13.307,41.066h-17.789l-9.72-39.13h-2.831v39.13H301.365z
	 M318.54,65.83h4.907c5.709,0,6.605-8.449,6.605-11.612c0-3.116-0.66-11.14-5.804-11.14h-5.709V65.83z"/>
<linearGradient id="SVGID_4_" gradientUnits="userSpaceOnUse" x1="860.3127" y1="-490.1846" x2="860.3127" y2="-326.6973" gradientTransform="matrix(0.5197 0 0 -0.5197 -66.752 -139.3098)">
	<stop  offset="0" style="stop-color:#3C4D6D"/>
	<stop  offset="0.3548" style="stop-color:#107E7B"/>
</linearGradient>
<path fill="url(#SVGID_4_)" d="M354.872,115.439V30.475h17.176v32.239l13.307-32.239h19.204l-17.316,34.788l18.591,50.176h-17.836
	l-12.834-38.848l-3.115,8.024v30.823H354.872z"/>
<g>
	<g>
		<circle fill="#161717" cx="286.869" cy="42.917" r="6.547"/>
		<circle fill="#161717" cx="217.865" cy="42.917" r="6.547"/>
	</g>
	<g>
		
			<linearGradient id="SVGID_5_" gradientUnits="userSpaceOnUse" x1="614.0461" y1="-490.1846" x2="614.0461" y2="-278.0576" gradientTransform="matrix(0.5197 0 0 -0.5197 -66.752 -139.3098)">
			<stop  offset="0" style="stop-color:#3C4D6D"/>
			<stop  offset="0.3548" style="stop-color:#107E7B"/>
		</linearGradient>
		<path fill="url(#SVGID_5_)" d="M306.429,115.439c0,0,1.345-46.071-23.181-78.989c-24.523-32.919-28.503-31.239-30.88-31.239
			c-2.378,0-6.357-1.681-30.884,31.239c-24.521,32.918-23.178,78.989-23.178,78.989H306.429z"/>
		<g>
			<path fill="#FBF7C2" d="M212.606,115.439c0,0,4.273-83.047,39.822-83.047s39.701,83.047,39.701,83.047H212.606z"/>
			<g>
				<g>
					<defs>
						<polygon id="SVGID_6_" points="232.707,110.412 215.883,102.327 233.798,97.955 217.849,88.777 235.764,86.373 
							221.128,75.227 239.696,75.227 226.154,61.021 244.503,65.394 235.546,48.347 250.184,59.272 252.367,40.479 254.551,59.929 
							269.189,47.909 260.014,65.394 278.147,60.583 264.822,75.227 282.954,75.227 268.317,86.373 286.666,88.559 270.721,98.393 
							288.853,102.545 271.811,110.412 285.576,115.439 218.286,115.439 						"/>
					</defs>
					<clipPath id="SVGID_7_">
						<use xlink:href="#SVGID_6_"  overflow="visible"/>
					</clipPath>
					
						<radialGradient id="SVGID_8_" cx="215.7043" cy="-175.959" r="86.6153" gradientTransform="matrix(1.0717 0 0 -1.2776 21.1916 -110.2117)" gradientUnits="userSpaceOnUse">
						<stop  offset="0" style="stop-color:#441214"/>
						<stop  offset="0.4677" style="stop-color:#B32325"/>
					</radialGradient>
					<rect x="169.028" y="-6.326" clip-path="url(#SVGID_7_)" fill="url(#SVGID_8_)" width="166.681" height="241.829"/>
				</g>
			</g>
		</g>
	</g>
</g>
<g>
	<path fill="#263238" d="M184.271,142.835l7.598-1.367c0.638,2.148,2.278,3.223,4.922,3.223c2.057,0,3.086-0.547,3.086-1.641
		c0-0.573-0.238-1.019-0.713-1.338c-0.476-0.319-1.325-0.602-2.549-0.849c-4.675-0.896-7.676-2.066-9.004-3.513
		c-1.328-1.445-1.992-3.146-1.992-5.099c0-2.514,0.954-4.604,2.861-6.271c1.907-1.667,4.651-2.501,8.232-2.501
		c5.43,0,9.017,2.181,10.762,6.543l-6.777,2.051c-0.703-1.784-2.129-2.676-4.277-2.676c-1.784,0-2.676,0.554-2.676,1.66
		c0,0.495,0.202,0.879,0.605,1.152c0.403,0.273,1.185,0.533,2.344,0.78c3.19,0.675,5.457,1.271,6.798,1.79
		c1.342,0.52,2.461,1.407,3.359,2.665c0.898,1.257,1.347,2.739,1.347,4.446c0,2.697-1.094,4.883-3.281,6.557
		c-2.188,1.675-5.059,2.512-8.613,2.512C189.804,150.96,185.794,148.252,184.271,142.835z"/>
	<path fill="#263238" d="M222.505,123.89v26.66h-8.184v-26.66H222.505z"/>
	<path fill="#263238" d="M250.681,144.261v6.289h-22.188v-5.098l11.814-15.391h-10.916v-6.172h20.918v5.176l-11.471,15.195H250.681z
		"/>
	<path fill="#263238" d="M264.853,123.89v26.66h-8.184v-26.66H264.853z"/>
	<path fill="#263238" d="M295.294,150.55h-6.66l-7.302-11.779c-0.938-1.511-1.882-3.346-2.835-5.506
		c0.43,1.719,0.645,3.177,0.645,4.375v12.91h-6.641v-26.66h7.734l6.212,9.765c1.237,1.94,2.174,3.646,2.812,5.118
		c-0.417-2.278-0.625-4.609-0.625-6.992v-7.891h6.66V150.55z"/>
	<path fill="#263238" d="M325.97,135.608v14.941h-4.004c-0.325-1.106-0.684-2.038-1.074-2.793c-1.653,2.136-4.102,3.203-7.344,3.203
		c-3.438,0-6.263-1.201-8.477-3.604s-3.32-5.654-3.32-9.756c0-3.984,1.071-7.334,3.213-10.049s5.329-4.072,9.561-4.072
		c3.177,0,5.735,0.808,7.676,2.422s3.196,3.906,3.77,6.875l-7.93,0.781c-0.391-2.773-1.608-4.16-3.652-4.16
		c-2.683,0-4.023,2.552-4.023,7.656c0,3.086,0.43,5.12,1.289,6.104s1.901,1.475,3.125,1.475c0.989,0,1.833-0.3,2.529-0.898
		s1.052-1.419,1.064-2.461h-4.414v-5.664H325.97z"/>
</g>
</svg>
